<svg id="Layer_1" enable-background="new 0 0 512 512" height="512" viewBox="0 0 512 512" width="512" xmlns="http://www.w3.org/2000/svg"><g><g><g><g><path d="m457.445 293.01-23.175-59.145c-4.605-11.751-7.688-24.041-9.217-36.57-10.632-87.123-85.31-154.467-175.526-153.507-96.014 1.022-173.701 80.17-173.017 176.187.41 57.612 28.685 108.581 72.006 140.153 8.096 5.901 12.824 15.365 12.824 25.384v118.988h201.497v-92.344l50.966-4.624c12.426-1.127 21.375-12.432 19.62-24.785l-9.23-64.961 27.699-11.636c5.111-2.147 7.575-7.979 5.553-13.14z" fill="#8dcafc"/><g fill="#64b9fc"><path d="m362.837 412.156h-30.443c-5.12 0-9.27 4.15-9.27 9.27v83.074h39.713z"/><g><path d="m177.955 60.025c-47.953 22.358-84.175 65.833-96.686 118.213 13.253 11.079 30.312 17.741 48.924 17.741 42.183 0 76.371-34.189 76.371-76.361 0-24.102-11.169-45.599-28.609-59.593z"/><path d="m130.192 221.673c-20.145 0-38.466 7.793-52.11 20.545 6.491 48.373 32.786 90.466 70.431 117.913 3.506 2.554 6.381 5.78 8.505 9.426 28.95-10.849 49.545-38.777 49.545-71.523.001-42.172-34.188-76.361-76.371-76.361z"/><ellipse cx="310.397" cy="298.039" rx="76.368" ry="76.368" transform="matrix(.707 -.707 .707 .707 -119.832 306.777)"/><path d="m457.446 293.013-23.175-59.152c-4.644-11.847-7.694-24.25-9.261-36.885-10.67-86.156-83.996-152.891-172.979-153.197-6.804-.019-13.516.343-20.116 1.094 13.706 1.52 26.939 4.607 39.522 9.066-22.375 13.302-37.382 37.694-37.407 65.609-.037 41.581 33.795 75.898 75.373 76.424 19.187.243 36.759-6.595 50.287-18.06 9.596-8.133 24.397-2.685 26.776 9.667.744 3.862 1.363 7.768 1.852 11.714 1.594 12.821 4.681 25.409 9.4 37.442l23.527 60.033c2.049 5.247-.454 11.161-5.645 13.34l-21.522 9.04c-3.885 1.632-6.181 5.679-5.588 9.851l8.366 58.866c1.307 9.177-3.217 17.78-10.679 22.174l27.625-2.503c12.431-1.131 21.377-12.431 19.625-24.788l-9.233-64.964 27.699-11.634c5.108-2.142 7.574-7.983 5.553-13.137z"/></g></g></g></g><g><g><circle cx="130.194" cy="83.868" fill="#fddd45" r="76.368"/><path d="m206.561 83.869c0 42.181-34.187 76.368-76.368 76.368-6.396 0-12.606-.786-18.54-2.274 33.216-8.281 57.819-38.309 57.819-74.094s-24.603-65.813-57.819-74.094c5.933-1.488 12.144-2.274 18.54-2.274 42.181 0 76.368 34.187 76.368 76.368z" fill="#f8c52d"/></g><g><circle cx="310.397" cy="83.868" fill="#fddd45" r="76.368"/><path d="m386.764 83.869c0 42.181-34.187 76.368-76.368 76.368-6.396 0-12.606-.786-18.54-2.274 33.216-8.281 57.819-38.309 57.819-74.094s-24.603-65.813-57.819-74.094c5.933-1.488 12.144-2.274 18.54-2.274 42.181 0 76.368 34.187 76.368 76.368z" fill="#f8c52d"/></g><g><circle cx="130.194" cy="262.293" fill="#fb8627" r="76.368"/><path d="m206.561 262.288c0 42.181-34.187 76.377-76.368 76.377-6.396 0-12.606-.786-18.54-2.274 33.216-8.281 57.819-38.318 57.819-74.103 0-35.776-24.603-65.813-57.819-74.094 5.933-1.488 12.144-2.274 18.54-2.274 42.181.001 76.368 34.197 76.368 76.368z" fill="#fb7722"/></g><g><circle cx="310.397" cy="262.293" fill="#27d1b3" r="76.368"/><path d="m386.764 262.288c0 42.181-34.187 76.377-76.368 76.377-6.396 0-12.606-.786-18.54-2.274 33.216-8.281 57.819-38.318 57.819-74.103 0-35.776-24.603-65.813-57.819-74.094 5.933-1.488 12.144-2.274 18.54-2.274 42.181.001 76.368 34.197 76.368 76.368z" fill="#20b69f"/></g></g></g><g><path d="m464.428 290.273-23.175-59.145c-4.352-11.107-7.298-22.796-8.755-34.742-4.216-34.547-18.16-66.916-40.367-93.792 1.38-6.026 2.134-12.288 2.134-18.726 0-46.244-37.623-83.868-83.868-83.868-18.998 0-37.608 6.533-52.402 18.395-6.502 5.214-12.161 11.371-16.822 18.194-12.845.718-25.563 2.776-37.918 6.173-14.403-25.499-41.746-42.762-73.061-42.762-46.245 0-83.869 37.624-83.869 83.869 0 28.155 13.96 53.095 35.307 68.314-6.594 16.716-10.642 34.236-12.054 52.181-1.688 1.761-3.306 3.595-4.839 5.505-11.874 14.798-18.414 33.416-18.414 52.425 0 42.928 32.426 78.405 74.068 83.277 7.291 7.525 15.251 14.459 23.705 20.62 6.1 4.446 9.742 11.669 9.742 19.323v118.986c0 4.142 3.358 7.5 7.5 7.5s7.5-3.358 7.5-7.5v-118.987c0-12.431-5.946-24.186-15.907-31.445-3.777-2.753-7.441-5.68-10.987-8.747 40.699-5.734 72.116-40.772 72.116-83.028 0-38.922-26.409-72.449-64.222-81.532-4.027-.969-8.077 1.513-9.044 5.541-.968 4.028 1.513 8.077 5.541 9.044 31.044 7.457 52.726 34.987 52.726 66.947 0 37.974-30.894 68.868-68.868 68.868s-68.869-30.894-68.869-68.868c0-32.107 21.805-59.665 53.026-67.016 4.032-.949 6.531-4.987 5.582-9.019s-4.985-6.533-9.019-5.582c-8.695 2.047-16.991 5.519-24.57 10.176 1.788-10.577 4.59-20.945 8.397-31.003 10.777 5.049 22.787 7.887 35.453 7.887 46.245 0 83.868-37.623 83.868-83.868 0-9.532-1.621-18.688-4.564-27.233 7.617-1.978 15.374-3.416 23.213-4.297-1.61 3.951-2.933 8.022-3.917 12.19-.952 4.031 1.544 8.071 5.575 9.023 4.032.951 8.071-1.544 9.023-5.575 7.368-31.191 34.921-52.976 67.004-52.976 37.974 0 68.868 30.895 68.868 68.869s-30.894 68.868-68.868 68.868c-31.984 0-59.518-21.702-66.958-52.775-.964-4.028-5.012-6.513-9.041-5.547-4.028.964-6.512 5.012-5.547 9.041 9.062 37.848 42.595 64.282 81.545 64.282 33.512 0 62.482-19.764 75.903-48.242 17.049 23.121 27.817 50.101 31.308 78.709 1.61 13.197 4.867 26.116 9.679 38.397l23.175 59.145c.542 1.382-.106 2.915-1.475 3.489l-27.699 11.636c-3.143 1.32-5 4.594-4.521 7.97l9.229 64.96c.557 3.92-.49 7.788-2.947 10.893-2.457 3.104-5.981 5.011-9.925 5.368l-50.966 4.624c-3.864.351-6.822 3.59-6.822 7.469v92.344c0 4.142 3.358 7.5 7.5 7.5s7.5-3.358 7.5-7.5v-85.494l44.144-4.005c8.077-.732 15.297-4.638 20.331-10.997s7.178-14.283 6.037-22.313l-8.416-59.231 22.364-9.396c8.94-3.754 13.17-13.765 9.633-22.791zm-334.234-137.536c-37.974 0-68.869-30.894-68.869-68.868s30.895-68.869 68.869-68.869 68.868 30.895 68.868 68.869-30.894 68.868-68.868 68.868z"/><path d="m98.718 79.211h.039c4.124 0 7.478-3.333 7.499-7.462.021-4.142-3.32-7.517-7.462-7.538h-.096c-.013 0-.026 0-.039 0-4.124 0-7.43 3.333-7.451 7.462-.02 4.141 3.368 7.517 7.51 7.538z"/><path d="m161.765 64.211h-.095c-.013 0-.026 0-.04 0-4.124 0-7.43 3.333-7.451 7.462-.021 4.142 3.367 7.517 7.509 7.539h.04c4.124 0 7.478-3.333 7.499-7.461.021-4.144-3.32-7.519-7.462-7.54z"/><path d="m156.559 96.217c-7.245 6.531-16.607 10.128-26.365 10.128s-19.121-3.597-26.364-10.128c-3.077-2.774-7.819-2.529-10.593.548s-2.528 7.819.548 10.593c10.004 9.02 22.935 13.988 36.409 13.988s26.404-4.968 36.409-13.988c3.077-2.774 3.322-7.516.548-10.592-2.774-3.077-7.517-3.323-10.592-.549z"/><path d="m278.997 64.211h-.096c-.013 0-.026 0-.039 0-4.124 0-7.43 3.333-7.451 7.462-.021 4.142 3.368 7.518 7.51 7.539h.039c4.124 0 7.478-3.333 7.499-7.462.021-4.143-3.32-7.518-7.462-7.539z"/><path d="m341.93 79.211c4.124 0 7.478-3.333 7.499-7.461.021-4.142-3.319-7.517-7.461-7.539h-.095c-.013 0-.026 0-.04 0-4.124 0-7.43 3.333-7.451 7.462-.021 4.142 3.367 7.517 7.509 7.539.013-.001.026-.001.039-.001z"/><path d="m273.988 108.275c-3.077 2.773-3.322 7.516-.548 10.592 2.773 3.077 7.517 3.322 10.592.548 7.245-6.531 16.607-10.128 26.365-10.128 9.757 0 19.12 3.597 26.365 10.128 1.434 1.293 3.23 1.93 5.02 1.93 2.05 0 4.092-.835 5.573-2.478 2.773-3.077 2.528-7.819-.548-10.592-10.005-9.02-22.936-13.988-36.409-13.988-13.475.001-26.406 4.968-36.41 13.988z"/><path d="m114.72 258.083c1.837-3.712.317-8.211-3.395-10.048l-9.338-4.622c-3.714-1.838-8.211-.317-10.048 3.395s-.317 8.211 3.395 10.048l9.338 4.622c1.069.529 2.204.78 3.321.78 2.762 0 5.419-1.532 6.727-4.175z"/><path d="m152.395 262.257c1.117 0 2.251-.25 3.32-.779l9.337-4.621c3.713-1.837 5.233-6.336 3.396-10.048-1.837-3.713-6.337-5.232-10.048-3.396l-9.337 4.621c-3.713 1.837-5.233 6.336-3.396 10.048 1.308 2.644 3.966 4.175 6.728 4.175z"/><path d="m356.674 323.499c-2.166-3.529-6.783-4.636-10.315-2.469-10.8 6.628-23.235 10.131-35.962 10.131-37.974 0-68.869-30.894-68.869-68.868s30.895-68.869 68.869-68.869 68.868 30.895 68.868 68.869c0 12.801-3.545 25.302-10.253 36.151-2.178 3.523-1.088 8.145 2.436 10.323 3.523 2.179 8.146 1.088 10.323-2.436 8.174-13.221 12.494-28.45 12.494-44.039 0-46.245-37.623-83.869-83.868-83.869s-83.869 37.624-83.869 83.869 37.624 83.868 83.869 83.868c15.498 0 30.647-4.27 43.808-12.347 3.53-2.166 4.636-6.784 2.469-10.314z"/><path d="m279.037 242.636c-4.104-.061-7.534 3.28-7.577 7.422l-.096 9.242c-.043 4.142 3.28 7.534 7.422 7.577h.079c4.106 0 7.456-3.307 7.498-7.422l.096-9.242c.043-4.142-3.28-7.534-7.422-7.577z"/><path d="m341.928 266.877h.079c4.142-.042 7.465-3.435 7.422-7.577l-.095-9.243c-.042-4.116-3.392-7.423-7.498-7.423-.026 0-.052 0-.079 0-4.142.042-7.465 3.435-7.422 7.577l.095 9.243c.042 4.116 3.392 7.423 7.498 7.423z"/><path d="m103.49 286.241c0 4.142 3.358 7.5 7.5 7.5h34.165c4.142 0 7.5-3.358 7.5-7.5s-3.358-7.5-7.5-7.5h-34.165c-4.142 0-7.5 3.358-7.5 7.5z"/><path d="m293.575 289.785h33.644c4.142 0 7.5-3.358 7.5-7.5s-3.358-7.5-7.5-7.5h-33.644c-4.142 0-7.5 3.358-7.5 7.5s3.358 7.5 7.5 7.5z"/></g></g></svg>