<svg id="Layer_1" enable-background="new 0 0 511.987 511.987" height="512" viewBox="0 0 511.987 511.987" width="512" xmlns="http://www.w3.org/2000/svg"><g id="XMLID_858_"><g id="XMLID_1350_"><path id="XMLID_1766_" d="m501.587 160.671c1.125-5.432-.175-11.105-3.625-15.449-7.823-9.853-16.289-19.363-25.399-28.473-123.477-123.477-320.384-128.769-450.156-15.878-10.574 9.198-14.84 23.71-11.083 37.212 6.784 24.387 35.79 34.709 56.339 19.927 120.897-86.969 287.226-82.521 403.477 13.344 10.952 9.031 27.569 3.218 30.447-10.683z" fill="#6d92ac"/><g id="XMLID_1411_"><ellipse id="XMLID_1765_" cx="255.982" cy="282.609" fill="#fff" rx="192" ry="118.142"/><g id="XMLID_1413_"><circle id="XMLID_1764_" cx="255.982" cy="282.609" fill="#a0c8ff" r="117.299"/><circle id="XMLID_1658_" cx="255.982" cy="282.609" fill="#6d92ac" r="58.649"/><circle id="XMLID_1417_" cx="284.247" cy="254.343" fill="#fff" r="30.384"/></g></g></g><g id="XMLID_148_"><path id="XMLID_178_" d="m284.248 213.959c-4.271 0-8.386.672-12.253 1.906-5.25-1.259-10.62-1.906-16.013-1.906-37.854 0-68.649 30.796-68.649 68.649s30.796 68.649 68.649 68.649 68.649-30.796 68.649-68.649c0-5.394-.647-10.764-1.906-16.013 1.234-3.867 1.906-7.982 1.906-12.252 0-22.268-18.116-40.384-40.383-40.384zm20.383 40.384c0 11.24-9.145 20.384-20.384 20.384s-20.384-9.144-20.384-20.384 9.145-20.384 20.384-20.384 20.384 9.145 20.384 20.384zm-48.649 76.915c-26.825 0-48.649-21.824-48.649-48.649 0-24.497 18.203-44.813 41.791-48.157-3.341 5.876-5.26 12.662-5.26 19.892 0 22.268 18.116 40.384 40.384 40.384 7.229 0 14.015-1.919 19.891-5.26-3.345 23.587-23.661 41.79-48.157 41.79z"/><path id="XMLID_182_" d="m136.489 376.43c35.756 22.453 77.075 34.321 119.493 34.321s83.737-11.868 119.493-34.321c34.773-21.836 62.932-52.719 81.431-89.31 1.435-2.837 1.435-6.187 0-9.023-18.499-36.591-46.657-67.474-81.431-89.31-35.756-22.453-77.075-34.321-119.493-34.321s-83.737 11.868-119.493 34.321c-34.773 21.836-62.932 52.719-81.431 89.31-1.435 2.837-1.435 6.187 0 9.023 18.499 36.591 46.657 67.474 81.431 89.31zm300.218-93.821c-19.968 37.229-50.157 66.53-86.134 85.19 9.841-10.911 17.761-23.468 23.367-37.249 2.081-5.116-.379-10.95-5.494-13.031-5.117-2.083-10.95.379-13.031 5.495-16.531 40.636-55.562 66.894-99.434 66.894-59.165 0-107.299-48.134-107.299-107.299s48.135-107.299 107.3-107.299c43.871 0 82.901 26.256 99.433 66.89 2.08 5.115 7.91 7.577 13.031 5.494 5.115-2.081 7.575-7.916 5.494-13.031-5.606-13.779-13.525-26.334-23.365-37.244 35.976 18.66 66.165 47.961 86.132 85.19zm-275.158-85.274c-20.416 22.586-32.866 52.503-32.866 85.274s12.45 62.687 32.865 85.273c-36.046-18.656-66.295-47.99-86.292-85.273 19.997-37.284 50.246-66.618 86.293-85.274z"/><path id="XMLID_186_" d="m505.794 139.004c-8.095-10.194-16.896-20.061-26.16-29.326-61.329-61.329-142.82-96.666-229.461-99.5-86.232-2.822-169.448 26.707-234.329 83.148-13.377 11.637-18.933 30.257-14.154 47.437 4.073 14.644 15.071 26.396 29.42 31.439 14.278 5.018 30.128 2.749 42.393-6.075 118.106-84.961 279.006-79.641 391.275 12.941 5.286 4.359 11.729 6.629 18.303 6.629 3.228 0 6.487-.547 9.656-1.663 9.606-3.382 16.576-11.358 18.643-21.335 1.739-8.397-.298-17.033-5.586-23.695zm-13.999 19.64c-.912 4.4-4.29 6.03-5.7 6.526-1.418.5-5.097 1.351-8.593-1.532-29.388-24.233-62.351-43.216-97.973-56.419-34.643-12.84-71.004-19.938-108.074-21.095-3.599-.112-7.189-.168-10.782-.168-33.311 0-66.292 4.83-98.183 14.39-36.165 10.841-70.035 27.511-100.668 49.547-7.066 5.082-15.845 6.336-24.082 3.441-8.308-2.919-14.425-9.455-16.783-17.93-2.723-9.791.422-20.384 8.014-26.987 126.281-109.858 318.026-103.093 436.521 15.403 8.728 8.728 17.018 18.021 24.639 27.62 1.59 2.004 2.198 4.63 1.664 7.204z"/><path id="XMLID_187_" d="m453.461 379.76c-4.622-3.026-10.819-1.731-13.844 2.888-.874 1.335-1.764 2.661-2.665 3.975-3.123 4.555-1.962 10.779 2.593 13.902 1.729 1.186 3.697 1.753 5.646 1.753 3.186 0 6.318-1.52 8.257-4.346.981-1.432 1.949-2.875 2.901-4.329 3.026-4.62 1.733-10.818-2.888-13.843z"/><path id="XMLID_582_" d="m261.313 481.933c-.078 0-.156.001-.233.002-3.354.077-6.737.079-10.09.002-.077-.001-.153-.002-.229-.002-5.418 0-9.871 4.33-9.993 9.775-.125 5.521 4.25 10.098 9.771 10.223 1.81.041 3.624.061 5.443.061 1.856 0 3.708-.021 5.555-.063 5.521-.126 9.896-4.705 9.769-10.227-.125-5.443-4.577-9.771-9.993-9.771z"/><path id="XMLID_583_" d="m111.097 427.332c-2.518-2.216-5.012-4.517-7.415-6.836-3.972-3.836-10.304-3.725-14.14.249s-3.725 10.304.249 14.14c2.621 2.531 5.343 5.041 8.089 7.458 1.9 1.673 4.257 2.495 6.604 2.495 2.773 0 5.533-1.147 7.51-3.392 3.65-4.145 3.248-10.464-.897-14.114z"/><path id="XMLID_584_" d="m408.333 420.447c-2.41 2.328-4.904 4.628-7.414 6.839-4.145 3.651-4.544 9.97-.894 14.114 1.978 2.244 4.735 3.39 7.508 3.39 2.348 0 4.706-.822 6.606-2.497 2.737-2.411 5.458-4.92 8.086-7.458 3.973-3.836 4.084-10.167.247-14.14-3.834-3.974-10.166-4.083-14.139-.248z"/><path id="XMLID_586_" d="m364.905 453.082c-2.9 1.663-5.882 3.282-8.86 4.812-4.913 2.524-6.85 8.552-4.325 13.464 1.772 3.451 5.273 5.433 8.902 5.433 1.538 0 3.1-.356 4.562-1.107 3.25-1.67 6.503-3.437 9.669-5.251 4.791-2.747 6.448-8.857 3.702-13.649-2.749-4.791-8.856-6.449-13.65-3.702z"/><path id="XMLID_675_" d="m314.81 474.018c-3.221.895-6.509 1.726-9.771 2.472-5.385 1.23-8.752 6.592-7.521 11.977 1.06 4.634 5.18 7.774 9.74 7.774.737 0 1.487-.082 2.236-.253 3.562-.814 7.15-1.722 10.667-2.698 5.321-1.478 8.438-6.989 6.96-12.311-1.478-5.323-6.992-8.436-12.311-6.961z"/><path id="XMLID_770_" d="m155.986 457.928c-2.972-1.525-5.954-3.144-8.867-4.812-4.795-2.744-10.902-1.083-13.646 3.709-2.745 4.792-1.084 10.903 3.709 13.647 3.177 1.819 6.431 3.584 9.672 5.248 1.462.75 3.021 1.105 4.559 1.105 3.63 0 7.133-1.984 8.904-5.436 2.521-4.912.582-10.94-4.331-13.461z"/><path id="XMLID_1064_" d="m207.012 476.51c-3.267-.745-6.558-1.576-9.779-2.469-5.319-1.478-10.832 1.642-12.309 6.964-1.476 5.322 1.643 10.833 6.965 12.309 3.518.976 7.11 1.883 10.678 2.696.748.17 1.495.252 2.231.252 4.563 0 8.684-3.143 9.741-7.779 1.228-5.385-2.142-10.745-7.527-11.973z"/><path id="XMLID_1066_" d="m72.346 382.648c-3.025-4.62-9.225-5.914-13.844-2.888-4.621 3.025-5.914 9.224-2.889 13.844.952 1.454 1.92 2.897 2.901 4.329 1.938 2.827 5.07 4.346 8.257 4.346 1.948 0 3.918-.568 5.646-1.753 4.555-3.123 5.716-9.347 2.593-13.902-.9-1.316-1.79-2.641-2.664-3.976z"/><path id="XMLID_1069_" d="m366.211 275.534c-1.859 1.86-2.93 4.44-2.93 7.07 0 2.64 1.07 5.21 2.93 7.08 1.86 1.86 4.44 2.93 7.07 2.93s5.21-1.07 7.07-2.93c1.859-1.87 2.93-4.44 2.93-7.08 0-2.63-1.07-5.21-2.93-7.07s-4.44-2.93-7.07-2.93c-2.639 0-5.209 1.07-7.07 2.93z"/></g></g></svg>