<?xml version="1.0" encoding="iso-8859-1"?>
<!-- Generator: Adobe Illustrator 19.0.0, SVG Export Plug-In . SVG Version: 6.00 Build 0)  -->
<svg version="1.1" id="Capa_1" xmlns="http://www.w3.org/2000/svg" xmlns:xlink="http://www.w3.org/1999/xlink" x="0px" y="0px"
	 viewBox="0 0 477.867 477.867" style="enable-background:new 0 0 477.867 477.867;" xml:space="preserve">
<g>
	<g>
		<path fill='#4f59e2' d="M460.8,341.333h-68.267c-3.693,0-7.286,1.198-10.24,3.413l-58.027,43.52l-58.027-43.52
			c-2.954-2.216-6.547-3.413-10.24-3.413H17.067C7.641,341.333,0,348.974,0,358.4v34.133c0.056,47.105,38.228,85.277,85.333,85.333
			h307.2c47.105-0.056,85.277-38.228,85.333-85.333V358.4C477.867,348.974,470.226,341.333,460.8,341.333z"/>
	</g>
</g>
<g>
	<g>
		<path fill='#4f59e2' d="M460.8,273.067H17.067C7.641,273.067,0,280.708,0,290.133S7.641,307.2,17.067,307.2H460.8
			c9.426,0,17.067-7.641,17.067-17.067S470.226,273.067,460.8,273.067z"/>
	</g>
</g>
<g>
	<g>
		<path fill='#4f59e2' d="M256,0h-34.133C99.392,0.141,0.141,99.392,0,221.867c0,9.426,7.641,17.067,17.067,17.067H460.8
			c9.426,0,17.067-7.641,17.067-17.067C477.726,99.392,378.475,0.141,256,0z M170.667,136.533c0,9.426-7.641,17.067-17.067,17.067
			s-17.067-7.641-17.067-17.067v-17.067c0-9.426,7.641-17.067,17.067-17.067s17.067,7.641,17.067,17.067V136.533z M256,136.533
			c0,9.426-7.641,17.067-17.067,17.067s-17.067-7.641-17.067-17.067v-17.067c0-9.426,7.641-17.067,17.067-17.067
			S256,110.041,256,119.467V136.533z M341.333,136.533c0,9.426-7.641,17.067-17.067,17.067c-9.426,0-17.067-7.641-17.067-17.067
			v-17.067c0-9.426,7.641-17.067,17.067-17.067c9.426,0,17.067,7.641,17.067,17.067V136.533z"/>
	</g>
</g>
<g>
</g>
<g>
</g>
<g>
</g>
<g>
</g>
<g>
</g>
<g>
</g>
<g>
</g>
<g>
</g>
<g>
</g>
<g>
</g>
<g>
</g>
<g>
</g>
<g>
</g>
<g>
</g>
<g>
</g>
</svg>
