<svg fill="none" height="512" viewBox="0 0 24 24" width="512" xmlns="http://www.w3.org/2000/svg"><g clip-rule="evenodd" fill-rule="evenodd"><path d="m12 .25c-6.48935 0-11.75 5.26065-11.75 11.75 0 6.4893 5.26065 11.75 11.75 11.75 6.4893 0 11.75-5.2607 11.75-11.75 0-6.48935-5.2607-11.75-11.75-11.75z" fill="#2196f3"/><path d="m9.14724 4.53218c-.85116 1.87254-1.39724 4.51211-1.39724 7.46782 0 2.9557.54608 5.5953 1.39724 7.4678.88196 1.9403 1.94696 2.7822 2.85276 2.7822s1.9708-.8419 2.8528-2.7822c.8511-1.8725 1.3972-4.5121 1.3972-7.4678 0-2.95571-.5461-5.59528-1.3972-7.46782-.882-1.94025-1.947-2.78218-2.8528-2.78218s-1.9708.84193-2.85276 2.78218zm-1.36555-.62071c.92771-2.04096 2.36261-3.66147 4.21831-3.66147s3.2906 1.62051 4.2183 3.66147c.9585 2.10867 1.5317 4.96911 1.5317 8.08853 0 3.1194-.5732 5.9799-1.5317 8.0885-.9277 2.041-2.3626 3.6615-4.2183 3.6615s-3.2906-1.6205-4.21831-3.6615c-.95849-2.1086-1.53169-4.9691-1.53169-8.0885 0-3.11942.5732-5.97986 1.53169-8.08853z" fill="#1867a7"/><path d="m19.4678 9.14724c-1.8725-.85116-4.5121-1.39724-7.4678-1.39724-2.95571 0-5.59528.54608-7.46782 1.39724-1.94025.88196-2.78218 1.94696-2.78218 2.85276s.84193 1.9708 2.78218 2.8528c1.87254.8511 4.51211 1.3972 7.46782 1.3972 2.9557 0 5.5953-.5461 7.4678-1.3972 1.9403-.882 2.7822-1.947 2.7822-2.8528s-.8419-1.9708-2.7822-2.85276zm.6207-1.36555c2.041.92771 3.6615 2.36261 3.6615 4.21831s-1.6205 3.2906-3.6615 4.2183c-2.1086.9585-4.9691 1.5317-8.0885 1.5317-3.11942 0-5.97986-.5732-8.08853-1.5317-2.04097-.9277-3.66147-2.3626-3.66147-4.2183s1.6205-3.2906 3.66147-4.21831c2.10868-.95849 4.96911-1.53169 8.08853-1.53169 3.1194 0 5.9799.5732 8.0885 1.53169z" fill="#1867a7"/><path d="m17.3962 12.7281c0-.8053-.7464-1.559-1.6658-1.299-.4936.1395-.9622.3382-1.3975.5878-.7947.4555-.7944 1.4741-.2433 2.0252.0131.0131.0131.0344 0 .0476-.0132.0131-.0345.0131-.0476 0-.5511-.5511-1.5697-.5514-2.0252.2433-.2496.4353-.4483.9039-.5879 1.3975-.2599.9194.4937 1.6659 1.2991 1.6659.0186 0 .0336.015.0336.0336s-.015.0337-.0336.0337c-.8053 0-1.559.7464-1.2991 1.6658.1557.5506.385 1.0701.6764 1.5471.4683.7666 1.4645.7561 2.007.2135.0268-.0268.0703-.0268.0971 0 .0273.0274.0266.0719-.0015.0985-.5447.5125-.5388 1.4911.2233 1.9098.4073.2237.8426.4035 1.2992.5326.9195.2599 1.6658-.4938 1.6658-1.2991 0-.0186.0151-.0336.0337-.0336s.0336.015.0336.0336c0 .8054.7465 1.559 1.6659 1.2991.4936-.1396.9622-.3383 1.3975-.5878.7947-.4556.7944-1.4742.2433-2.0252-.0131-.0132-.0131-.0345 0-.0476.0132-.0132.0345-.0132.0476 0 .5511.551 1.5697.5513 2.0252-.2433.2496-.4354.4483-.904.5878-1.3976.26-.9194-.4936-1.6658-1.299-1.6658-.0186 0-.0337-.0151-.0337-.0337s.0151-.0336.0337-.0336c.8054 0 1.559-.7465 1.299-1.6659-.1395-.4936-.3382-.9622-.5878-1.3975-.4555-.7947-1.4741-.7944-2.0252-.2433-.0131.0131-.0344.0131-.0476 0-.0131-.0132-.0131-.0345 0-.0476.5511-.5511.5514-1.5697-.2433-2.0252-.4353-.2496-.9039-.4483-1.3975-.5878-.9194-.26-1.6659.4937-1.6659 1.299 0 .0186-.015.0337-.0336.0337s-.0337-.0151-.0337-.0337z" fill="#f44336"/><path d="m18.2346 19.3673c.0603-.1491.2301-.221.3792-.1607.384.1553.8212-.03.9765-.414.1554-.384-.03-.8212-.414-.9765-.917-.371-1.9612.0716-2.3322.9887-.1554.3839.03.8212.4139.9765.384.1554.8212-.03.9766-.414z" fill="#aa2b21"/><path d="m8.08716 15.9128c-.21642-1.2031-.33716-2.523-.33716-3.9128s.12074-2.70971.33716-3.91284c1.20313-.21642 2.52304-.33716 3.91284-.33716 1.3945 0 2.7135.1213 3.9128.33708.0589.32742.1108.66389.1551 1.00855.0528.41084.4287.70106.8395.64825.4109-.05282.7011-.42868.6483-.83951-.0199-.15487-.0413-.30858-.0642-.46106 1.4058.38711 2.5739.91349 3.4063 1.51995.8203.59764 1.2283 1.20424 1.3277 1.76304.0114.1466.021.268.0275.341.0372.4126.4018.7168.8143.6797.3929-.0354.6875-.3677.6827-.7556-.0004-.1542-.0122-.3056-.0346-.454l-.0015-.0196c-.0132-.1712-.0288-.3729-.0459-.5824-.0324-.3979-.073-.8602-.1117-1.0709-1.0047-5.4698-5.7957-9.6145-11.5563-9.6145-6.48935 0-11.75 5.26065-11.75 11.75 0 6.4893 5.26065 11.75 11.75 11.75.4142 0 .75-.3358.75-.75s-.3358-.75-.75-.75c-.9058 0-1.9708-.8419-2.85276-2.7822-.26719-.5878-.50433-1.2512-.70394-1.9763.15248.0229.3062.0443.46106.0642.41084.0528.7867-.2374.83952-.6483.05281-.4108-.23741-.7867-.64825-.8395-.34463-.0443-.68108-.0962-1.00847-.1551zm1.06008-11.38062c.88196-1.94025 1.94696-2.78218 2.85276-2.78218.7454 0 1.6024.56043 2.3962 1.9008.4549.76805.8519 1.73661 1.1605 2.85778-1.1273-.16884-2.3236-.25858-3.5567-.25858-1.2365 0-2.43229.09006-3.5567.25848.19961-.72505.43674-1.38847.70394-1.9763zm-2.32965 2.28541c.24952-1.07058.57508-2.05027.9641-2.90612.26504-.58308.57148-1.13186.9173-1.61832-3.00556 1.02179-5.38405 3.40028-6.40584 6.40584.48646-.34582 1.03524-.65226 1.61832-.9173.85585-.38902 1.83554-.71458 2.90612-.9641zm-5.06759 5.18331c.00046.7452.56098 1.6019 1.9008 2.3953.76802.4549 1.73655.8518 2.85768 1.1605-.16842-1.1244-.25848-2.3202-.25848-3.5567s.09006-2.43229.25848-3.5567c-.72505.19961-1.38847.43674-1.9763.70394-1.94025.88196-2.78218 1.94796-2.78218 2.85366zm5.06759 5.1815c-1.51927-.3541-2.86322-.8631-3.93115-1.4955-.2052-.1215-.40345-.2498-.59283-.3845 1.02205 3.0049 3.40028 5.3828 6.40538 6.4045-.34582-.4865-.65226-1.0353-.9173-1.6184-.38902-.8558-.71458-1.8355-.9641-2.9061zm14.88891-8.48517c-1.0219-3.00419-3.3998-5.38167-6.4041-6.40355.1348.18935.263.38758.3845.59276.6324 1.06793 1.1414 2.4119 1.4955 3.93118 1.8187.42378 3.3825 1.0687 4.5241 1.87961z" fill="#000"/></g><path d="m18.6139 19.2066c-.1491-.0603-.3188.0117-.3792.1608-.1553.384-.5925.5693-.9765.4139-.384-.1553-.5693-.5925-.414-.9765.3711-.9171 1.4153-1.3597 2.3323-.9887.384.1554.5693.5926.414.9766-.1554.3839-.5926.5693-.9766.4139z" fill="#000"/><path clip-rule="evenodd" d="m15.7305 11.4291c.9194-.26 1.6659.4937 1.6659 1.299 0 .0186.015.0337.0336.0337s.0337-.0151.0337-.0337c0-.8053.7464-1.559 1.6658-1.299.4936.1395.9622.3382 1.3975.5878.7947.4555.7944 1.4741.2433 2.0252-.0131.0131-.0131.0344 0 .0476.0132.0131.0345.0131.0476 0 .5511-.5511 1.5697-.5514 2.0252.2433.2496.4353.4483.9039.5879 1.3975.2599.9194-.4937 1.6659-1.2991 1.6659-.0186 0-.0336.015-.0336.0336s.015.0337.0336.0337c.8054 0 1.559.7464 1.2991 1.6658-.1396.4936-.3383.9622-.5879 1.3976-.4555.7946-1.4741.7943-2.0252.2433-.0131-.0132-.0344-.0132-.0476 0-.0131.0131-.0131.0344 0 .0476.5511.551.5514 1.5696-.2433 2.0252-.4353.2495-.9039.4482-1.3975.5878-.9194.2599-1.6658-.4937-1.6658-1.2991 0-.0186-.0151-.0336-.0337-.0336s-.0336.015-.0336.0336c0 .8053-.7464 1.559-1.6659 1.2991-.4566-.1291-.8918-.3089-1.2992-.5326-.7621-.4187-.768-1.3973-.2233-1.9098.0282-.0266.0288-.0711.0015-.0985-.0268-.0268-.0703-.0268-.0971 0-.5425.5426-1.5387.5531-2.007-.2135-.2914-.477-.5207-.9965-.6764-1.5471-.2599-.9194.4938-1.6658 1.2991-1.6658.0186 0 .0337-.0151.0337-.0337s-.0151-.0336-.0337-.0336c-.8054 0-1.559-.7465-1.299-1.6659.1395-.4936.3382-.9622.5878-1.3975.4555-.7947 1.4741-.7944 2.0252-.2433.0131.0131.0344.0131.0476 0 .0131-.0132.0131-.0345 0-.0476-.5511-.5511-.5514-1.5697.2433-2.0252.4353-.2496.9039-.4483 1.3975-.5878zm.1808 1.5139c-.2024.0685-.3987.1503-.5879.2445.4189.5982.3612 1.4286-.1731 1.9628-.5342.5343-1.3646.592-1.9628.1731-.0942.1892-.176.3855-.2445.5879.7453.1045 1.3188.7446 1.3188 1.5187s-.5735 1.4142-1.3188 1.5187c.0835.2469.1869.4848.3083.7117.6127-.4371 1.469-.3808 2.0188.169.5241.5241.5984 1.3242.2301 1.9266.1339.0598.271.1136.4111.161.1045-.7453.7446-1.3187 1.5187-1.3187s1.4142.5734 1.5187 1.3187c.2024-.0685.3987-.1503.5879-.2445-.4189-.5982-.3612-1.4285.1731-1.9628.5342-.5342 1.3646-.5919 1.9628-.173.0942-.1892.176-.3856.2445-.588-.7453-.1045-1.3187-.7446-1.3187-1.5187s.5734-1.4142 1.3187-1.5187c-.0685-.2024-.1503-.3987-.2445-.5879-.5982.4189-1.4286.3612-1.9628-.1731-.5343-.5342-.592-1.3646-.1731-1.9628-.1892-.0942-.3855-.176-.5879-.2445-.1045.7453-.7446 1.3188-1.5187 1.3188s-1.4142-.5735-1.5187-1.3188z" fill="#000" fill-rule="evenodd"/></svg>